#!OML:ASF F:\VICON\USERDATA\INSTALL\rory3\rory3.ASF
:FULLY-SPECIFIED
:DEGREES
29
root 0.009758698120002351 17.281533947575618 1.8837268855862792 2.731398803147128 4.2316776699275565 1.5118250390272172
lfemur -21.084864607854467 0.021079924828010244 -25.117813449815483
ltibia 43.21769114020941
lfoot 4.506173444822143 -11.942344997268384
ltoes 0.12233484168050346
rfemur 0.4667605321410804 -0.1291595640510408 28.06971456487469
rtibia 76.60266170080224
rfoot 11.154660809676615 -14.224351938042581
rtoes -5.721051616069779
lowerback 14.43174090022337 1.6020572299919984 1.6345667089020757
upperback -0.46671694451481915 3.6896789886757944 0.9117684420855947
thorax -7.755397980481316 1.7794396629613964 -1.7221366675850966
lowerneck -18.185812002600937 -5.063616352858603 -2.38967498264752
upperneck 13.093228922588994 -7.135343137421142 4.132722482331112
head 7.2221946129274635 -3.282727759176797 0.9709490063364514
lclavicle 3.0724525844557323e-16 -4.306739326069217e-16
lhumerus -51.9986346683227 -15.784486198363975 99.48614069342591
lradius 112.51400250860061
lwrist 31.85360883573239
lhand -26.404657333313008 3.4351603983059658
lfingers 7.125020000000001
lthumb -0.012029238313743806 33.428911571772254
rclavicle 3.0723791510005253e-16 -4.306781242762292e-16
rhumerus -43.37133908266067 10.109285507154494 -97.89964031572111
rradius 100.10528827925592
rwrist -19.41945508448507
rhand -18.873609862154705 38.08645920623782
rfingers 7.125020000000001
rthumb 7.415894303361872 7.9987757581048875
30
root 0.015842926947955083 17.165543947992777 3.826893533006527 2.9172960361340854 3.74543821689464 1.7308724756871625
lfemur -20.893755907453816 -0.2736092919302139 -26.752845307357514
ltibia 45.45159609514548
lfoot 3.1389646603489902 -11.3395688943802
ltoes -0.8629618053572035
rfemur -3.636909441977899 -1.1766858718703743 25.977564160858037
rtibia 81.35391027182135
rfoot 10.018752053844816 -12.370155602565042
rtoes -3.758840279615072
lowerback 15.030232127755081 1.5759656909736321 0.3635435898664241
upperback -0.23474074857627603 3.2530463482417877 0.6788119529072049
thorax -7.910683547349639 1.6017134456329334 -1.2613856608740186
lowerneck -18.42166288279832 -4.878677750025338 -2.323342352934986
upperneck 13.099413278128067 -7.017258671595741 4.231053120363878
head 7.21702936738776 -3.2388470081593894 0.9970023291924806
lclavicle 3.0724525844162365e-16 -4.3067393260917617e-16
lhumerus -48.55080532016058 -17.044458903664683 99.22837155568595
lradius 110.04368853388145
lwrist 31.847933941263086
lhand -26.0549694020792 3.1861070437398746
lfingers 7.125020000000001
lthumb 0.3801207006685334 33.288404172734886
rclavicle 3.072379152178878e-16 -4.3067812420896743e-16
rhumerus -44.98117506056307 9.040528996384399 -98.13689672752321
rradius 98.04190713198865
rwrist -19.2887559635538
rhand -18.746404680009647 38.052219012718595
rfingers 7.125020000000001
rthumb 7.4122925549050915 7.889580588728934
31
root 0.02888555319403957 17.08584623973903 5.330794190712522 3.1095044020497835 2.96514861701895 1.7025768281116969
lfemur -15.456963071602466 -0.23762770267091482 -26.723427172148256
ltibia 45.00990557452132
lfoot 1.3681447367802513 -10.697987361873583
ltoes -2.0619458798078245
rfemur -9.535572359497923 -2.0265943868280205 23.359637914384898
rtibia 85.09076813367345
rfoot 10.47984701836801 -9.291838741500385
rtoes -0.6692918584808778
lowerback 15.344030692186443 1.5938116368626076 -0.9208635333902226
upperback -0.05396620988412004 2.6936484272931933 0.37898958147373896
thorax -7.932586696164858 1.5286368638457364 -0.7192459674081295
lowerneck -18.83764284061253 -4.694532257630164 -2.2936541351528574
upperneck 13.093183602875357 -6.873849128592937 4.255401657652876
head 7.229678680982115 -3.1577755870004367 1.0347990186637848
lclavicle 3.072452584384392e-16 -4.306739326109939e-16
lhumerus -44.497435046743924 -17.896436562415957 98.93195239040132
lradius 106.97125750872425
lwrist 31.78674277030576
lhand -25.3449570211323 3.022786373164917
lfingers 7.125020000000001
lthumb 1.1235854990143104 33.181802126692624
rclavicle 3.072379151477132e-16 -4.3067812424902396e-16
rhumerus -46.12797883812214 8.070785437222368 -98.0579302540387
rradius 96.64076700534152
rwrist -19.14370941420006
rhand -18.806056407022794 37.54541536682743
rfingers 7.125020000000001
rthumb 7.503929279148213 7.687480144255721
32
root 0.03825703655521029 17.119586820025475 4.968990010907406 3.3386075987116652 2.0916023034242954 1.9132066050047933
lfemur -12.669012035053274 -0.8180748229037902 -27.341456601785335
ltibia 43.54278545504245
lfoot 0.6663062678964466 -9.928548701650543
ltoes -4.1332605877153314
rfemur -15.746143410210447 -2.527816312027145 20.984300493525982
rtibia 87.28631190783514
rfoot 10.745171601526193 -6.659424423052849
rtoes 1.59977431590187
lowerback 15.413712564970073 1.4282978245161009 -2.0600582683352755
upperback 0.0666078850622781 2.143499378758269 0.021994824904877586
thorax -8.029240060874008 1.3473945038602864 -0.4092980976487628
lowerneck -19.200680226035647 -4.511842176930531 -2.3224664070373557
upperneck 13.201282013183922 -6.514298000162555 4.036583869706858
head 7.250782008343999 -3.043399373841862 1.0378116977998582
lclavicle 3.072452584430524e-16 -4.3067393260836063e-16
lhumerus -41.903256628757966 -18.110844676673864 98.31850863724182
lradius 104.23485089617091
lwrist 31.658664539671236
lhand -25.06652649535265 3.266328299661367
lfingers 7.125020000000001
lthumb 1.450291595817405 33.4534586005045
rclavicle 3.0723791515898705e-16 -4.306781242425887e-16
rhumerus -47.32905870598381 7.555129818630479 -98.02784187856746
rradius 95.94359206832938
rwrist -19.078765067164735
rhand -18.815697015432164 37.27513347163862
rfingers 7.125020000000001
rthumb 7.3981888783773435 7.223899264886583
33
root 0.05565312672848832 17.176447511063483 5.4328711266319365 3.5561505778369065 1.3682051519103935 1.6134231570168203
lfemur -9.123791097115358 -1.4593994819773464 -27.65246157019631
ltibia 41.9113982716889
lfoot 0.7176768710250006 -9.207288606087834
ltoes -5.523682012865823
rfemur -22.961696966335083 -2.8527556374353846 19.42655919650635
rtibia 87.52015351941495
rfoot 11.04246745934712 -4.690438452172398
rtoes 2.86840341077717
lowerback 15.251089159984355 1.1733010324629678 -2.36363648506359
upperback 0.023855379756935413 1.8822024545627634 -0.2078559756209004
thorax -7.878232609179703 1.2745303314258905 0.1010386693485586
lowerneck -19.62202576233679 -4.319998601873514 -2.358984353380599
upperneck 13.40616030513872 -6.042838232742493 3.747751857942139
head 7.277880577281043 -2.8612602788346155 1.0099920042728237
lclavicle 3.072452584431808e-16 -4.306739326082873e-16
lhumerus -38.97763102161518 -17.503381804611497 98.01508568933158
lradius 102.80521158370173
lwrist 31.623943703175772
lhand -24.893829534748527 2.7128884618963784
lfingers 7.125020000000001
lthumb 1.6129706690155525 32.72097487032574
rclavicle 3.0723791498351475e-16 -4.306781243427504e-16
rhumerus -48.338571449018175 7.361359815279767 -98.06179090823129
rradius 95.99611511140063
rwrist -19.036061066862565
rhand -18.716810418281263 37.05795466566763
rfingers 7.125020000000001
rthumb 7.639222020805818 7.345537817133582
